<?xml version="1.0" encoding="UTF-8"?>
<svg viewBox="0 0 100 30" version="1.1" xmlns="http://www.w3.org/2000/svg" xmlns:xlink="http://www.w3.org/1999/xlink">
    <title>android-download</title>
    <g id="iCON-(共用+-V1-+-V2)" stroke="none" stroke-width="1" fill="none" fill-rule="evenodd">
        <g id="android-download" fill-rule="nonzero">
            <rect id="Rectangle_541" stroke="#FFFFFF" stroke-width="0.8" fill="#000000" x="0.4" y="0.4" width="99.2" height="29.2" rx="4"></rect>
            <g id="Group" transform="translate(41, 15)" fill="#FFFFFF">
                <path d="M5.12025647,0 L8.85156192,9.84712141 L7.44889287,9.84712141 L6.42004026,6.88414556 L2.36636099,6.88414556 L1.29635428,9.84712141 L0,9.84712141 L3.71758742,0 L5.12025647,0 Z M6.00506971,5.7809851 L4.41377768,1.18448319 L4.38634161,1.18448319 L2.76761351,5.7809851 L6.00506971,5.7809851 Z" id="Shape"></path>
                <path d="M10.672631,2.71900767 L10.672631,3.83631121 L10.7103556,3.83631121 C11.1517726,2.99133158 12.027211,2.4856204 12.9566838,2.53868336 C13.3437813,2.5261279 13.7294934,2.59220488 14.0918512,2.73315075 C14.3770339,2.85148674 14.6292277,3.04102526 14.825766,3.28473098 C15.016632,3.52328021 15.1515907,3.80398082 15.2201595,4.10502979 C15.2994,4.45257878 15.3374029,4.80876395 15.3333333,5.165761 L15.3333333,9.84712141 L14.1947364,9.84712141 L14.1947364,5.0207944 C14.2182887,4.62905772 14.0828874,4.24484674 13.82092,3.96006319 C13.5439489,3.69088282 13.1721656,3.55033845 12.7920674,3.57112841 C12.483706,3.56439183 12.1771186,3.62087884 11.8901066,3.73730963 C11.6450991,3.84115873 11.4267607,4.0021199 11.252218,4.20756714 C11.0809016,4.41478711 10.9514759,4.65521225 10.8715425,4.91472128 C10.7854343,5.20210741 10.7426383,5.50142121 10.7446507,5.80219972 L10.7446507,9.84712141 L9.60948334,9.84712141 L9.60948334,2.71900767 L10.672631,2.71900767 Z" id="Path"></path>
                <path d="M22.0791769,9.84712141 L22.0791769,8.881856 L22.0551704,8.881856 C21.8733216,9.27030305 21.5579856,9.57524799 21.1703571,9.73751251 C20.7504623,9.91497172 20.3003481,10.0039367 19.8465668,9.99915955 C19.3647421,10.0105276 18.8869341,9.90643742 18.4507567,9.69508327 C18.0659509,9.50317672 17.7273915,9.22538645 17.4596287,8.881856 C17.1895828,8.52966696 16.9870637,8.12767818 16.8628942,7.69737282 C16.7278091,7.23170511 16.6607694,6.74788669 16.6639827,6.26184991 C16.6613493,5.77610579 16.7271981,5.29254515 16.8594647,4.82632701 C16.9764043,4.39729004 17.1758402,3.9968811 17.4459107,3.64891536 C17.7143369,3.30966773 18.0529848,3.03663725 18.4370387,2.84983119 C18.8666605,2.64522134 19.3356797,2.54367549 19.8088422,2.55282645 C20.0021589,2.55368167 20.1950017,2.57261672 20.3849996,2.60939878 C20.5969483,2.64598466 20.8040907,2.70767993 21.0023112,2.79325885 C21.2095599,2.88470989 21.40439,3.00356604 21.5818982,3.14683593 C21.7670696,3.29218348 21.9241193,3.47208984 22.0448818,3.67720153 L22.0688884,3.67720153 L22.0688884,0 L23.2074853,0 L23.2074853,9.84712141 L22.0791769,9.84712141 Z M17.9946321,7.31550958 C18.0730362,7.62018159 18.204335,7.90768683 18.3821666,8.16409455 C18.5579698,8.41233379 18.7867828,8.61557301 19.0509207,8.75810403 C19.3480817,8.90957035 19.6763383,8.98477645 20.0077537,8.97732181 C20.6581085,9.00685319 21.2765174,8.68538932 21.6401998,8.12873684 C21.8129154,7.86814978 21.9373321,7.57684107 22.0071572,7.26954456 C22.1625569,6.61447357 22.1625569,5.93044088 22.0071572,5.27536989 C21.9347896,4.96539716 21.8055757,4.6725585 21.6264818,4.41264184 C21.4451944,4.16198792 21.2105399,3.95756121 20.94058,3.81509659 C20.6291321,3.65424937 20.2839385,3.57529782 19.935734,3.58527149 C19.5966526,3.57593556 19.2610336,3.65756656 18.9617535,3.82216813 C18.7009409,3.96957864 18.4803743,4.18238688 18.3204354,4.440928 C18.1563266,4.71235351 18.0402114,5.01163588 17.9774845,5.32487068 C17.9056438,5.65920921 17.8699876,6.00073046 17.8711698,6.34317264 C17.8688902,6.67158786 17.9104336,6.99876588 17.9946321,7.31550958 L17.9946321,7.31550958 Z" id="Shape"></path>
                <path d="M25.9991053,2.71900767 L25.9991053,4.22171022 L26.0265414,4.22171022 C26.2517826,3.70658725 26.6071173,3.26331026 27.055394,2.93822545 C27.5124816,2.64834607 28.0462373,2.51355498 28.5815254,2.55282645 L28.5815254,3.79388196 C28.185914,3.7834952 27.7918235,3.84821575 27.4189219,3.98481358 C27.1165379,4.10119964 26.8483961,4.29605438 26.6404235,4.55053689 C26.4376467,4.81751418 26.2926458,5.12614652 26.2151644,5.45569419 C26.1208389,5.85486118 26.0758982,6.26473204 26.0814136,6.67553509 L26.0814136,9.85772872 L24.9428167,9.85772872 L24.9428167,2.71900767 L25.9991053,2.71900767 Z" id="Path"></path>
                <path d="M29.0205025,4.81925547 C29.1542222,4.3829604 29.373701,3.97974999 29.6652501,3.63477228 C29.956444,3.29375414 30.3171417,3.0233005 30.7215388,2.84275964 C31.6499527,2.45622716 32.6876302,2.45622716 33.6160441,2.84275964 C34.0178616,3.02439703 34.3761033,3.29476479 34.6654738,3.63477228 C34.9571898,3.97905226 35.1756611,4.38255795 35.3067919,4.81925547 C35.4536002,5.2947334 35.5265212,5.79116324 35.522851,6.29013608 C35.5271234,6.78568021 35.4541748,7.27871591 35.3067919,7.75040938 C35.1756941,8.18606206 34.9571926,8.58841902 34.6654738,8.93135679 C34.376777,9.27036846 34.0182238,9.53855521 33.6160441,9.71629789 C32.685885,10.0934556 31.651698,10.0934556 30.7215388,9.71629789 C30.316833,9.53957354 29.9558375,9.27131333 29.6652501,8.93135679 C29.3737053,8.58771377 29.1541979,8.18565473 29.0205025,7.75040938 C28.8759816,7.27811324 28.8042326,6.7853635 28.807873,6.29013608 C28.8047828,5.79147357 28.8765069,5.29531731 29.0205025,4.81925547 L29.0205025,4.81925547 Z M30.1796764,7.43926156 C30.2751009,7.74936333 30.4315455,8.03583719 30.6392306,8.28077499 C30.8302262,8.5014235 31.0638586,8.67846395 31.3251323,8.80053328 C31.8624118,9.0329039 32.4686416,9.02779131 33.0021621,8.7863902 C33.2634358,8.66432087 33.4970682,8.48728041 33.6880638,8.2666319 C33.8957489,8.02169411 34.0521935,7.73522025 34.147618,7.42511848 C34.2657884,7.05451423 34.3225976,6.66604351 34.3156639,6.275993 C34.3223331,5.88480315 34.2655353,5.49521519 34.147618,5.12333175 C34.0503358,4.81193718 33.8941402,4.52351583 33.6880638,4.27474678 C33.4981803,4.05195146 33.2643297,3.87354017 33.0021621,3.75145272 C32.4686836,3.51094004 31.8620403,3.51094004 31.3285618,3.75145272 C31.0663942,3.87354017 30.8325436,4.05195146 30.6426601,4.27474678 C30.4365837,4.52351583 30.2803881,4.81193718 30.1831059,5.12333175 C30.0651887,5.49521519 30.0083908,5.88480315 30.01506,6.275993 C30.0054675,6.67057304 30.0611357,7.06395496 30.1796764,7.43926156 L30.1796764,7.43926156 Z" id="Shape"></path>
                <path d="M36.92552,1.43552291 L36.92552,0 L38.0641169,0 L38.0641169,1.43552291 L36.92552,1.43552291 Z M38.0641169,2.71900767 L38.0641169,9.84712141 L36.92552,9.84712141 L36.92552,2.71900767 L38.0641169,2.71900767 Z" id="Shape"></path>
                <path d="M44.8716916,9.84712141 L44.8716916,8.881856 L44.8442556,8.881856 C44.6679117,9.26810153 44.3586912,9.57304221 43.9765899,9.73751251 C43.5566951,9.91497172 43.1065809,10.0039367 42.6527995,9.99915955 C42.1699033,10.0101768 41.6910582,9.90611637 41.25356,9.69508327 C40.8687542,9.50317672 40.5301948,9.22538645 40.262432,8.881856 C39.9945788,8.52874068 39.7933322,8.12696902 39.669127,7.69737282 C39.532881,7.23188622 39.4646849,6.74806406 39.466786,6.26184991 C39.4641526,5.77610579 39.5300013,5.29254515 39.6622679,4.82632701 C39.7817833,4.39764327 39.9822442,3.99751659 40.2521434,3.64891536 C40.5165476,3.30979763 40.8518384,3.03663819 41.2329829,2.84983119 C41.6627546,2.64568825 42.1316689,2.54416513 42.6047864,2.55282645 C42.7981031,2.55368167 42.9909459,2.57261672 43.1809439,2.60939878 C43.3916711,2.64648991 43.5976222,2.70817309 43.7948259,2.79325885 C44.0031662,2.88465214 44.1991376,3.00350125 44.3778424,3.14683593 C44.5628681,3.29130447 44.7189385,3.47142333 44.8373966,3.67720153 L44.8648326,3.67720153 L44.8648326,0 L46,0 L46,9.84712141 L44.8716916,9.84712141 Z M40.7871468,7.31550958 C40.8640813,7.62073195 40.9955019,7.90850408 41.1746813,8.16409455 C41.3487936,8.41393606 41.5780107,8.61753425 41.8434355,8.75810403 C42.1395628,8.90901466 42.4665776,8.98420578 42.7968389,8.97732181 C43.1367543,8.98819747 43.4735733,8.90778047 43.7742489,8.74396095 C44.0360494,8.59422402 44.2603428,8.38356277 44.429285,8.12873684 C44.6036503,7.86909815 44.7282097,7.57745533 44.7962425,7.26954456 C44.874214,6.94929658 44.9133804,6.62031878 44.9128511,6.29013608 C44.9130912,5.94810173 44.8727813,5.60731897 44.7928129,5.27536989 C44.7178392,4.96570256 44.5875836,4.67313875 44.408708,4.41264184 C44.2290878,4.1603766 43.9940289,3.95559753 43.7228062,3.81509659 C43.4126287,3.65412226 43.0685097,3.57514694 42.7213897,3.58527149 C42.3811699,3.57548217 42.0443331,3.65712191 41.7439797,3.82216813 C41.4838553,3.97055613 41.2635009,4.18315953 41.1026616,4.440928 C40.9370129,4.7115464 40.8207827,5.01112548 40.7597107,5.32487068 C40.6867166,5.65907614 40.6499101,6.00059897 40.6499664,6.34317264 C40.6521945,6.67223968 40.6983547,6.9994238 40.7871468,7.31550958 L40.7871468,7.31550958 Z" id="Shape"></path>
            </g>
            <g id="Group" transform="translate(41, 7)" fill="#FFFFFF">
                <path d="M2.06983948,0.0710715231 C2.85125568,0.0208214417 3.62225135,0.266063563 4.21946869,0.754836234 C4.76093476,1.31898283 5.03321839,2.07587521 4.97043086,2.84235631 C4.97694529,3.28102698 4.9200764,3.71843405 4.80146438,4.14196209 C4.70222069,4.49425983 4.52261831,4.82070345 4.27579086,5.09742138 C4.03003588,5.36202728 3.72054581,5.56419904 3.37463625,5.68609299 C2.95625265,5.83032641 2.51402062,5.89939007 2.06983948,5.88986393 L0,5.88986393 L0,0.0710715231 L2.06983948,0.0710715231 Z M2.15901624,5.23779692 C2.248193,5.23779692 2.36083732,5.23779692 2.49694922,5.23779692 C2.64444366,5.22367261 2.78951426,5.19172469 2.92875246,5.14270381 C3.09541766,5.08880398 3.25341105,5.01258895 3.39810382,4.91629166 C3.55712308,4.81025919 3.6927296,4.67481013 3.79705247,4.51780626 C3.92841875,4.32383143 4.02814387,4.11155074 4.09274383,3.88838047 C4.17244469,3.59277855 4.2103363,3.28813396 4.20538815,2.98273185 C4.20856367,2.6687284 4.17231624,2.35550927 4.09743734,2.04991377 C4.03777025,1.79375748 3.91905835,1.5538599 3.75011734,1.34803608 C3.5875952,1.14801379 3.37415152,0.992007888 3.13057355,0.89521177 C2.83058214,0.787487734 2.51183046,0.736745674 2.19187083,0.745779748 L0.840138928,0.745779748 L0.840138928,5.27402286 L2.15901624,5.23779692 Z" id="Shape"></path>
                <path d="M5.73078006,2.91933644 C5.81384517,2.66107718 5.95125823,2.42213494 6.13442223,2.21745876 C6.32041944,2.02222509 6.54770269,1.86780253 6.80090115,1.76463445 C7.09678742,1.64108712 7.41737025,1.5823212 7.73960387,1.59256121 C8.05404433,1.58476895 8.36643925,1.64350228 8.65483901,1.76463445 C8.90700673,1.867235 9.1328754,2.02178483 9.31662443,2.21745876 C9.50296015,2.42071422 9.64217438,2.66000598 9.72496011,2.91933644 C9.81715184,3.20049916 9.86308021,3.4938693 9.861072,3.78875912 C9.86311075,4.08068534 9.81716999,4.37107787 9.72496011,4.64912531 C9.64209951,4.90707154 9.50285573,5.14486994 9.31662443,5.34647475 C9.1328754,5.54214868 8.90700673,5.69669852 8.65483901,5.79929907 C8.36543452,5.9168361 8.05351901,5.97393606 7.73960387,5.96684406 C7.4179014,5.97619039 7.09784606,5.91906509 6.80090115,5.79929907 C6.54770269,5.69613099 6.32041944,5.54170842 6.13442223,5.34647475 C5.95137399,5.14343229 5.81393553,4.90598775 5.73078006,4.64912531 C5.63857018,4.37107787 5.59262942,4.08068534 5.59466817,3.78875912 C5.59265995,3.4938693 5.63858832,3.20049916 5.73078006,2.91933644 L5.73078006,2.91933644 Z M6.46296818,4.46799559 C6.52224149,4.65206856 6.62143769,4.82186466 6.75396602,4.96610233 C6.87322291,5.09642768 7.02060783,5.19998283 7.18576927,5.26949462 C7.35249901,5.34180621 7.53333608,5.37886164 7.7161363,5.3781835 C7.89743103,5.37891869 8.07675059,5.34184614 8.24180982,5.26949462 C8.40904721,5.20121978 8.55822724,5.09753042 8.67830658,4.96610233 C8.80802626,4.81995057 8.9068795,4.65074152 8.96930442,4.46799559 C9.11342908,4.02584584 9.11342908,3.5516724 8.96930442,3.10952265 C8.90590878,2.92719174 8.8071556,2.75815398 8.67830658,2.61141591 C8.55867583,2.47727164 8.40956274,2.37053499 8.24180982,2.29896714 C8.0757156,2.2302274 7.89686717,2.19481753 7.7161363,2.19481753 C7.53389044,2.19481753 7.35351113,2.23022834 7.18576927,2.29896714 C7.02017288,2.37186875 6.87287287,2.47845366 6.75396602,2.61141591 C6.62143769,2.75565359 6.52224149,2.92544968 6.46296818,3.10952265 C6.31884352,3.5516724 6.31884352,4.02584584 6.46296818,4.46799559 L6.46296818,4.46799559 Z" id="Shape"></path>
                <polygon id="Path" points="14.2448137 5.88986393 13.3577396 2.53896402 13.3577396 2.53896402 12.4847461 5.88986393 11.6868488 5.88986393 10.2787947 1.67406959 11.076692 1.67406959 12.0670234 5.12459084 12.0670234 5.12459084 12.9540974 1.67406959 13.7379142 1.67406959 14.6484558 5.12459084 14.6484558 5.12459084 15.6294002 1.67406959 16.3709753 1.67406959 14.9629212 5.88986393"></polygon>
                <path d="M17.7602553,1.67406959 L17.7602553,2.34424957 L17.7602553,2.34424957 C18.035233,1.84651142 18.584584,1.54794079 19.1683094,1.57897648 C19.4130401,1.57116944 19.6569903,1.60962697 19.886417,1.69218256 C20.0676109,1.75880295 20.228868,1.86770807 20.3557683,2.00915958 C20.4760948,2.15013006 20.5612069,2.3159097 20.6045245,2.49368159 C20.6529721,2.69865135 20.6765978,2.90835359 20.6749273,3.11857914 L20.6749273,5.88986393 L19.9943678,5.88986393 L19.9943678,3.03707076 C20.0058508,2.80823979 19.9212522,2.58460185 19.7596921,2.41670146 C19.5825011,2.25986864 19.3474326,2.17828911 19.1072937,2.1902893 C18.9133916,2.18619972 18.7205129,2.2184958 18.5393786,2.28538241 C18.3844217,2.34808067 18.2463613,2.44410783 18.1357364,2.56613348 C18.0279988,2.68824241 17.9466181,2.82987745 17.8963672,2.98273185 C17.8426287,3.15297507 17.8157314,3.33004705 17.8165775,3.50800805 L17.8165775,5.88986393 L17.0843894,5.88986393 L17.0843894,1.67406959 L17.7602553,1.67406959 Z" id="Path"></path>
                <polygon id="Path" points="22.5429456 0.0710715231 22.5429456 5.88986393 21.8248381 5.88986393 21.8248381 0.0710715231"></polygon>
                <path d="M23.5567446,2.91933644 C23.6398097,2.66107718 23.7772227,2.42213494 23.9603867,2.21745876 C24.146384,2.02222509 24.3736672,1.86780253 24.6268657,1.76463445 C24.9155335,1.64433579 25.2277363,1.58563856 25.5421008,1.59256121 C25.8644074,1.5814056 26.1851975,1.64020952 26.4808035,1.76463445 C26.7329712,1.867235 26.9588399,2.02178483 27.1425889,2.21745876 C27.3289247,2.42071422 27.4681389,2.66000598 27.5509246,2.91933644 C27.6431164,3.20049916 27.6890447,3.4938693 27.6870365,3.78875912 C27.6890753,4.08068534 27.6431345,4.37107787 27.5509246,4.64912531 C27.468064,4.90707154 27.3288203,5.14486994 27.1425889,5.34647475 C26.9588399,5.54214868 26.7329712,5.69669852 26.4808035,5.79929907 C26.1841547,5.92002156 25.8638814,5.97718576 25.5421008,5.96684406 C25.228267,5.97299062 24.9165534,5.91592763 24.6268657,5.79929907 C24.3736672,5.69613099 24.146384,5.54170842 23.9603867,5.34647475 C23.7773385,5.14343229 23.6399,4.90598775 23.5567446,4.64912531 C23.4645347,4.37107787 23.4185939,4.08068534 23.4206327,3.78875912 C23.4186245,3.4938693 23.4645528,3.20049916 23.5567446,2.91933644 L23.5567446,2.91933644 Z M24.2842392,4.46799559 C24.3463127,4.65185586 24.446967,4.82141305 24.5799305,4.96610233 C24.6991874,5.09642768 24.8465723,5.19998283 25.0117338,5.26949462 C25.1784635,5.34180621 25.3593006,5.37886164 25.5421008,5.3781835 C25.7233955,5.37891869 25.9027151,5.34184614 26.0677743,5.26949462 C26.2350117,5.20121978 26.3841918,5.09753042 26.5042711,4.96610233 C26.6339908,4.81995057 26.732844,4.65074152 26.7952689,4.46799559 C26.9319522,4.024772 26.9319522,3.55274624 26.7952689,3.10952265 C26.7318733,2.92719174 26.6331201,2.75815398 26.5042711,2.61141591 C26.3846403,2.47727164 26.2355273,2.37053499 26.0677743,2.29896714 C25.9016801,2.2302274 25.7228317,2.19481753 25.5421008,2.19481753 C25.359855,2.19481753 25.1794756,2.23022834 25.0117338,2.29896714 C24.8461374,2.37186875 24.6988374,2.47845366 24.5799305,2.61141591 C24.4479252,2.75676696 24.3473892,2.92612491 24.2842392,3.10952265 C24.147556,3.55274624 24.147556,4.024772 24.2842392,4.46799559 L24.2842392,4.46799559 Z" id="Shape"></path>
                <path d="M32.3758566,5.88986393 C32.2171402,5.97053642 32.0386916,6.00809968 31.8595701,5.99854176 C31.697774,6.00723043 31.539041,5.95346726 31.4183798,5.84910974 C31.2952753,5.71355569 31.2358118,5.53489003 31.2541068,5.35553124 C31.0696328,5.57223095 30.8326696,5.74175126 30.5641603,5.84910974 C30.2933357,5.95033048 30.005059,6.00103851 29.7146344,5.99854176 C29.5246454,5.99939514 29.3353382,5.97656498 29.1514127,5.93061812 C28.981726,5.8956597 28.8217172,5.82619118 28.6820614,5.72684718 C28.5514263,5.63174734 28.4467246,5.50742133 28.376983,5.36458773 C28.2939292,5.19655239 28.2536993,5.01180116 28.2596452,4.8257268 C28.2516077,4.62247754 28.2951079,4.4204069 28.38637,4.23705519 C28.4660623,4.09000036 28.5801552,3.96287099 28.7196095,3.86573926 C28.8625422,3.76877304 29.0211406,3.69532646 29.1889609,3.64838359 C29.3673144,3.60310115 29.5456679,3.56234697 29.7334084,3.52612102 C29.921149,3.48989508 30.1182765,3.46272562 30.2966301,3.4400844 C30.4546716,3.42445745 30.6114657,3.39874104 30.7659814,3.36310427 C30.8835823,3.33465052 30.9927983,3.28041586 31.0851403,3.20461576 C31.1676386,3.12819721 31.2106367,3.0203387 31.2024782,2.91027996 C31.2099827,2.78228325 31.1790167,2.65491873 31.1133014,2.54349226 C31.060739,2.45330289 30.9825796,2.3794667 30.8880128,2.33066484 C30.7901343,2.27974988 30.6836577,2.24601853 30.5735474,2.23104349 C30.4599223,2.21677843 30.3455008,2.2092173 30.2309209,2.20840227 C29.9666633,2.19931888 29.704539,2.25707869 29.4705717,2.37594727 C29.2533932,2.5149399 29.1284666,2.75427329 29.1420257,3.00537306 L28.4426922,3.00537306 C28.4468449,2.77555354 28.5045961,2.54958756 28.6116587,2.34424957 C28.7097229,2.16628855 28.8476021,2.01160933 29.0153009,1.89142526 C29.1925246,1.77788652 29.3897633,1.69655144 29.5972965,1.65142837 C29.8251338,1.60129116 30.058257,1.57697609 30.2919365,1.57897648 C30.4882631,1.57886241 30.6843395,1.59249363 30.8786257,1.61973067 C31.0647113,1.64312186 31.2446052,1.69995104 31.4089928,1.78727566 C31.5667832,1.86929047 31.6982675,1.99144659 31.7891674,2.14047863 C31.8927476,2.32174128 31.9430568,2.52685195 31.9346663,2.73367848 L31.9346663,4.89817869 C31.9309341,5.01804727 31.9403738,5.13796007 31.9628274,5.25590989 C31.9628274,5.32836178 32.0473106,5.36911597 32.1599549,5.36911597 C32.2344142,5.36583065 32.3083302,5.35520953 32.3805501,5.33741827 L32.3758566,5.88986393 Z M31.2118652,3.72989196 C31.1046868,3.80157478 30.9832026,3.85092485 30.8551582,3.87479574 C30.7096593,3.9019652 30.5547733,3.92913466 30.3858068,3.94724763 L29.9164555,4.01064303 C29.76662,4.03299464 29.6200848,4.07251891 29.4799587,4.12837736 C29.3555171,4.17888196 29.2458974,4.25820175 29.1607998,4.35931775 C29.0734974,4.47964042 29.0305305,4.62472921 29.0387684,4.77138788 C29.0351695,4.8708636 29.0594941,4.96942955 29.1091711,5.05666719 C29.1552878,5.13349006 29.2196279,5.19866829 29.2969117,5.24685341 C29.3780826,5.29921927 29.4688937,5.33610912 29.5644419,5.35553124 C29.8776124,5.41540961 30.2016749,5.393524 30.5031447,5.29213584 C30.6547692,5.23904553 30.7948297,5.15919678 30.9161738,5.05666719 C31.0162125,4.97130206 31.0962191,4.86632452 31.1508495,4.74874666 C31.2003722,4.65132598 31.2275848,4.54476411 31.2306393,4.43629789 L31.2118652,3.72989196 Z" id="Shape"></path>
                <path d="M36.2292312,5.88986393 L36.2292312,5.3193053 L36.2292312,5.3193053 C36.115516,5.54991922 35.9161808,5.7309226 35.6707031,5.82646852 C35.4053124,5.92992583 35.1214878,5.98223052 34.8352577,5.98042879 C34.5304098,5.98836053 34.2279729,5.92627811 33.9528771,5.79929907 C33.7103971,5.68606726 33.4971423,5.52208956 33.3286398,5.3193053 C33.1569211,5.11140469 33.029332,4.8729055 32.9531587,4.61742761 C32.7873104,4.06424488 32.7873104,3.47704742 32.9531587,2.92386469 C33.027797,2.67006714 33.1538196,2.43305332 33.3239463,2.22651525 C33.4936898,2.03180402 33.707167,1.87694682 33.9481836,1.77369094 C34.2215825,1.65185264 34.5200775,1.59146884 34.8211771,1.59708945 C34.9439492,1.59698973 35.0664793,1.60759881 35.1872712,1.62878716 C35.3204108,1.65298254 35.4508552,1.68937323 35.5768328,1.73746499 C35.7058117,1.79304464 35.8284942,1.86133074 35.9429269,1.94123593 C36.0600399,2.02797305 36.1588235,2.13557567 36.2339247,2.25821295 L36.2339247,2.25821295 L36.2339247,0.0710715231 L36.9520323,0.0710715231 L36.9520323,5.88986393 L36.2292312,5.88986393 Z M33.6477987,4.3955437 C33.6972531,4.5744558 33.7799469,4.74322526 33.8918614,4.89365044 C34.0001197,5.04336747 34.1452848,5.16474717 34.3142777,5.24685341 C34.5020897,5.33730835 34.7098727,5.38237444 34.9197409,5.37817246 C35.1337542,5.3828141 35.3454322,5.33448621 35.5345912,5.23779692 C35.6994282,5.14945259 35.8408028,5.02545588 35.9476204,4.87553747 C36.0584438,4.7206979 36.138056,4.54710982 36.1822961,4.363846 C36.2291174,4.17548757 36.2527517,3.98245853 36.2526988,3.78875912 C36.2540688,3.58575618 36.2288367,3.38340025 36.1776026,3.18650279 C36.1306533,3.00474055 36.049519,2.83283735 35.9382334,2.67933956 C35.8259799,2.53025174 35.6798895,2.40789181 35.5111236,2.32160835 C35.3133719,2.2308985 35.0964177,2.1859346 34.8774993,2.1902893 C34.6623383,2.1836782 34.4490191,2.23045269 34.2579555,2.3261366 C34.0957115,2.41649956 33.9575131,2.54207981 33.8543133,2.69292429 C33.7489385,2.85394149 33.6742328,3.03182908 33.6337182,3.21820049 C33.5879429,3.41585625 33.5658948,3.61793757 33.568009,3.82045682 C33.566481,4.01481634 33.5933415,4.2084144 33.6477987,4.3955437 L33.6477987,4.3955437 Z" id="Shape"></path>
                <path d="M39.9605745,2.26726943 L39.9605745,1.67406959 L40.6974561,1.67406959 L40.6974561,1.04917204 C40.6756919,0.758050782 40.7891985,0.472661663 41.007228,0.27031422 C41.2609477,0.0763132506 41.5807642,-0.0189995532 41.9036891,0.0031478763 C41.9818654,-0.000628021041 42.0601885,-0.000628021041 42.1383648,0.0031478763 C42.2167382,0.011266808 42.2938969,0.0279782331 42.3683469,0.0529585506 L42.3683469,0.655214885 C42.3032404,0.632232208 42.2354627,0.617024975 42.1665259,0.609932454 L41.9647048,0.609932454 C41.8227914,0.602802001 41.681994,0.637551663 41.5610626,0.709553803 C41.4498496,0.803064768 41.3951178,0.944444734 41.4155637,1.08539798 L41.4155637,1.66954134 L42.2603961,1.66954134 L42.2603961,2.26726943 L41.4155637,2.26726943 L41.4155637,5.88986393 L40.6974561,5.88986393 L40.6974561,2.26726943 L39.9605745,2.26726943 Z" id="Path"></path>
                <path d="M42.8001502,2.91933644 C42.8832153,2.66107718 43.0206284,2.42213494 43.2037924,2.21745876 C43.3902494,2.02070245 43.619426,1.86608234 43.8749648,1.76463445 C44.4603494,1.53531533 45.1153569,1.53531533 45.7007416,1.76463445 C45.95394,1.86780253 46.1812233,2.02222509 46.3672205,2.21745876 C46.5503845,2.42213494 46.6877976,2.66107718 46.7708627,2.91933644 C46.8630544,3.20049916 46.9089828,3.4938693 46.9069746,3.78875912 C46.9090133,4.08068534 46.8630726,4.37107787 46.7708627,4.64912531 C46.6877072,4.90598775 46.5502687,5.14343229 46.3672205,5.34647475 C46.1812233,5.54170842 45.95394,5.69613099 45.7007416,5.79929907 C45.114148,6.02256534 44.4615584,6.02256534 43.8749648,5.79929907 C43.619426,5.69785118 43.3902494,5.54323106 43.2037924,5.34647475 C43.0207441,5.14343229 42.8833057,4.90598775 42.8001502,4.64912531 C42.7079403,4.37107787 42.6619995,4.08068534 42.6640383,3.78875912 C42.6620301,3.4938693 42.7079585,3.20049916 42.8001502,2.91933644 L42.8001502,2.91933644 Z M43.5323383,4.46799559 C43.5928901,4.65153397 43.6919439,4.82108625 43.8233361,4.96610233 C43.9434155,5.09753042 44.0925955,5.20121978 44.2598329,5.26949462 C44.4247503,5.34225998 44.6041653,5.37935228 44.7855064,5.37819974 C44.9683066,5.37886164 45.1491437,5.34180621 45.3158735,5.26949462 C45.4810349,5.19998283 45.6284198,5.09642768 45.7476767,4.96610233 C45.879069,4.82108625 45.9781228,4.65153397 46.0386746,4.46799559 C46.1827992,4.02584584 46.1827992,3.5516724 46.0386746,3.10952265 C45.9771613,2.92638967 45.8782116,2.75701566 45.7476767,2.61141591 C45.6287699,2.47845366 45.4814698,2.37186875 45.3158735,2.29896714 C45.1481316,2.23022834 44.9677523,2.19481154 44.7855064,2.19481154 C44.604722,2.19428066 44.4257671,2.22973629 44.2598329,2.29896714 C44.09208,2.37053499 43.9429669,2.47727164 43.8233361,2.61141591 C43.6928012,2.75701566 43.5938516,2.92638967 43.5323383,3.10952265 C43.3882137,3.5516724 43.3882137,4.02584584 43.5323383,4.46799559 L43.5323383,4.46799559 Z" id="Shape"></path>
                <path d="M48.3995119,1.67406959 L48.3995119,2.57971821 L48.3995119,2.57971821 C48.5442967,2.27156946 48.773014,2.00708613 49.0612973,1.81444512 C49.3422487,1.64678699 49.6703242,1.5676562 50,1.58803297 L50,2.31255187 C49.7492504,2.3062954 49.4994523,2.34467152 49.2631184,2.42575794 C49.0789683,2.495901 48.9171258,2.61144726 48.793767,2.76084793 C48.664592,2.91820562 48.5717767,3.10038745 48.5215432,3.29518062 C48.4619275,3.53076335 48.4335396,3.77269275 48.43706,4.01517128 L48.43706,5.88986393 L47.7189524,5.88986393 L47.7189524,1.67406959 L48.3995119,1.67406959 Z" id="Path"></path>
            </g>
            <g id="bot" transform="translate(7, 5.5)" fill="#9FC732">
                <path d="M1.93458789,10.7440145 C0.866785708,10.7455815 0.00154642124,11.6223528 0,12.7043867 L0,20.6710661 C0,21.7537498 0.866144503,22.6314404 1.93458789,22.6314404 L1.93458789,22.6314404 C2.44790103,22.6321949 2.94040496,22.4258992 3.30337255,22.058094 C3.66634013,21.6902887 3.86992243,21.1912207 3.86917784,20.6710661 L3.86917784,12.7043867 C3.86917784,11.621703 3.00303129,10.7440145 1.93458789,10.7440145" id="Path_613"></path>
                <path d="M25.0626002,10.7440145 C23.9941568,10.7440145 23.1280103,11.621703 23.1280103,12.7043867 L23.1280103,12.7043867 L23.1280103,20.6710661 C23.1272657,21.1912207 23.330848,21.6902887 23.6938156,22.058094 C24.0567831,22.4258992 24.5492871,22.6321949 25.0626002,22.6314404 L25.0626002,22.6314404 C25.576658,22.6321949 26.0698761,22.4255995 26.4333703,22.0572606 C26.7968644,21.6889218 27.0007426,21.1891301 26.999998,20.6682209 L26.999998,12.7015414 C26.9984495,11.6195075 26.1332102,10.7427363 25.065408,10.7411692 M9.4511217,5.29822004 C9.86206147,5.29822004 10.195194,5.63579255 10.195194,6.05220934 L10.195194,6.05220934 C10.1936474,6.46751457 9.86096744,6.80335636 9.4511217,6.8033534 L9.4511217,6.8033534 C9.17489381,6.82057248 8.91205768,6.68101868 8.76880358,6.44107411 C8.62554948,6.20112953 8.62554948,5.90044391 8.76880358,5.66049933 C8.91205768,5.42055476 9.17489381,5.28100096 9.4511217,5.29822004 L9.4511217,5.29822004 Z M18.253637,6.05220934 C18.2520904,6.46751457 17.9194105,6.8033588 17.5095647,6.8033588 L17.5095647,6.8033588 C17.3124831,6.80410988 17.1232175,6.72530579 16.9835956,6.58435688 C16.8439737,6.44340797 16.7654871,6.25191908 16.7654871,6.05220934 L16.7654871,6.05220934 C16.7647427,5.85200699 16.842895,5.65978509 16.9825985,5.51821963 C17.122302,5.37665417 17.3119956,5.29746025 17.5095647,5.29821462 L17.5095647,5.29821462 C17.7066478,5.29821462 17.895618,5.37774722 18.0347131,5.51923003 C18.1738081,5.66071284 18.2515757,5.85250103 18.2508292,6.05220934 L18.253637,6.05220934 Z M5.48367222,9.77378673 L21.4882455,9.77378673 C21.6625007,9.77378673 21.8296188,9.70364154 21.9528358,9.5787823 C22.0760528,9.45392306 22.1452754,9.28457758 22.1452754,9.10799995 C22.1495569,9.06162892 22.1495569,9.0149541 22.1452754,8.96858306 C21.6113054,6.44535493 20.0305816,4.27749299 17.8071937,3.01918067 L19.1746019,0.521057623 C19.2666495,0.352108628 19.2063553,0.139539205 19.0398266,0.0459021003 L19.0398266,0.0459021003 C18.8749753,-0.0424420513 18.6707037,0.0165199027 18.5765363,0.179628505 L18.5765363,0.179628505 L17.2007046,2.7005135 C14.846016,1.59640731 12.1315173,1.59640731 9.77682881,2.7005135 L8.38976579,0.179628505 C8.29672282,0.0107047113 8.08615794,-0.0498035687 7.91945596,0.0444794789 C7.75275398,0.138762527 7.69304155,0.35213383 7.78608452,0.521057623 L9.15349279,3.01918067 C6.9382,4.28398244 5.36701219,6.45346509 4.84068147,8.97427355 C4.80152555,9.14833468 4.83299478,9.33103855 4.92802415,9.48136718 C5.02305351,9.63169582 5.17368067,9.73705345 5.34608904,9.77378673 C5.39091879,9.77798172 5.43603465,9.77798172 5.4808644,9.77378673" id="Path_615"></path>
                <path d="M21.6454834,10.7468597 L5.36012814,10.7468597 C4.99835758,10.7484264 4.70590611,11.0460509 4.70590611,11.4126465 L4.70590611,24 L22.3025133,24 L22.3025133,11.4126465 C22.3025133,11.0449426 22.008351,10.7468597 21.6454834,10.7468597 Z" id="Path"></path>
            </g>
        </g>
    </g>
</svg>