<?xml version="1.0" encoding="UTF-8"?>
<svg viewBox="0 0 30 30" version="1.1" xmlns="http://www.w3.org/2000/svg" xmlns:xlink="http://www.w3.org/1999/xlink">
    <title>leftmenu/sports/color/icon-bti</title>
    <defs>
        <path d="M14.000137,0 C6.26809248,0 0,6.26781853 0,13.999863 L0,13.999863 C0,21.7319075 6.26809248,28 14.000137,28 L14.000137,28 C21.7321815,28 28,21.7319075 28,13.999863 L28,13.999863 C28,6.26781853 21.7321815,0 14.000137,0 Z" id="path-1"></path>
        <linearGradient x1="50.0002717%" y1="100%" x2="50.0002717%" y2="-0.000543483578%" id="linearGradient-3">
            <stop stop-color="#891D2F" offset="0%"></stop>
            <stop stop-color="#ED1F3D" offset="100%"></stop>
        </linearGradient>
        <polygon id="path-4" points="0 0 1.47701424 0 1.47701424 1.47673304 0 1.47673304"></polygon>
        <polygon id="path-6" points="0 0 1.47689921 0 1.47689921 1.47673304 0 1.47673304"></polygon>
        <polygon id="path-8" points="0 0 1.47689921 0 1.47689921 1.47673304 0 1.47673304"></polygon>
    </defs>
    <g id="leftmenu/sports/color/icon-bti" stroke="none" stroke-width="1" fill="none" fill-rule="evenodd">
        <g id="Group-2" transform="translate(1, 1)">
            <g id="Group-3">
                <mask id="mask-2" fill="white">
                    <use xlink:href="#path-1"></use>
                </mask>
                <g id="Clip-2"></g>
                <path d="M14.000137,0 C6.26809248,0 0,6.26781853 0,13.999863 L0,13.999863 C0,21.7319075 6.26809248,28 14.000137,28 L14.000137,28 C21.7321815,28 28,21.7319075 28,13.999863 L28,13.999863 C28,6.26781853 21.7321815,0 14.000137,0 Z" id="Fill-1" fill="url(#linearGradient-3)" mask="url(#mask-2)"></path>
            </g>
            <g id="Group-102" transform="translate(3.914, 4.2151)">
                <path d="M9.98569184,9.18904685 C9.57790247,9.18904685 9.24718472,9.51947845 9.24718472,9.92755716 C9.24718472,10.3353483 9.57790247,10.6657799 9.98569184,10.6657799 C10.3934812,10.6657799 10.724199,10.3353483 10.724199,9.92755716 C10.724199,9.51947845 10.3934812,9.18904685 9.98569184,9.18904685" id="Fill-1" fill="#FCF5F6"></path>
                <path d="M9.98569184,6.00206426 C9.57790247,6.00206426 9.24718472,6.33249586 9.24718472,6.74028699 C9.24718472,7.14807812 9.57790247,7.4787973 9.98569184,7.4787973 C10.3934812,7.4787973 10.724199,7.14807812 10.724199,6.74028699 C10.724199,6.33249586 10.3934812,6.00206426 9.98569184,6.00206426" id="Fill-3" fill="#FCF5F6"></path>
                <path d="M6.82118307,9.1665867 C6.4133937,9.1665867 6.08267595,9.4970183 6.08267595,9.90480943 C6.08267595,10.3126006 6.4133937,10.6433197 6.82118307,10.6433197 C7.22897244,10.6433197 7.55969019,10.3126006 7.55969019,9.90480943 C7.55969019,9.4970183 7.22897244,9.1665867 6.82118307,9.1665867" id="Fill-5" fill="#FFFFFF"></path>
                <path d="M7.22589533,7.14523106 C6.93745193,7.43338812 6.93745193,7.90099629 7.22589533,8.18944093 C7.51433872,8.47788557 7.98165729,8.47788557 8.27010069,8.18944093 C8.55854408,7.90099629 8.55854408,7.43338812 8.27010069,7.14523106 C7.98165729,6.85678642 7.51433872,6.85678642 7.22589533,7.14523106" id="Fill-7" fill="#FFFFFF"></path>
                <path d="M9.98569184,3.00085958 C9.57790247,3.00085958 9.24718472,3.33129118 9.24718472,3.73908231 C9.24718472,4.14716102 9.57790247,4.47759262 9.98569184,4.47759262 C10.3934812,4.47759262 10.724199,4.14716102 10.724199,3.73908231 C10.724199,3.33129118 10.3934812,3.00085958 9.98569184,3.00085958" id="Fill-9" fill="#FCF5F6"></path>
                <g id="Group-13" transform="translate(9.2472, 0)">
                    <mask id="mask-5" fill="white">
                        <use xlink:href="#path-4"></use>
                    </mask>
                    <g id="Clip-12"></g>
                    <path d="M0.738507122,1.47673304 C1.14629649,1.47673304 1.47701424,1.14630144 1.47701424,0.738510312 C1.47701424,0.3304316 1.14629649,0 0.738507122,0 C0.330717753,0 0,0.3304316 0,0.738510312 C0,1.14630144 0.330717753,1.47673304 0.738507122,1.47673304" id="Fill-11" fill="#FCF5F6" mask="url(#mask-5)"></path>
                </g>
                <path d="M3.79744503,9.18904685 C3.38965566,9.18904685 3.05893791,9.51947845 3.05893791,9.92755716 C3.05893791,10.3353483 3.38965566,10.6657799 3.79744503,10.6657799 C4.2052344,10.6657799 4.53595215,10.3353483 4.53595215,9.92755716 C4.53595215,9.51947845 4.2052344,9.18904685 3.79744503,9.18904685" id="Fill-14" fill="#FFFFFF"></path>
                <path d="M6.13208231,5.02966359 C5.84363891,4.74121895 5.37632034,4.74121895 5.08787695,5.02966359 C4.79943355,5.31782065 4.79943355,5.78542882 5.08787695,6.07387346 C5.37632034,6.3623181 5.84363891,6.3623181 6.13208231,6.07387346 C6.4205257,5.78542882 6.4205257,5.31782065 6.13208231,5.02966359" id="Fill-16" fill="#FFFFFF"></path>
                <path d="M4.5510789,6.87717598 C4.17434824,6.72101901 3.7424021,6.90018253 3.5862458,7.27691481 C3.43037708,7.6536471 3.60925225,8.08559511 3.98598291,8.2414645 C4.36271357,8.39762147 4.79465971,8.21874553 4.95081601,7.84172566 C5.10668472,7.46499337 4.92780956,7.03304536 4.5510789,6.87717598" id="Fill-18" fill="#FFFFFF"></path>
                <path d="M7.33500343,3.52814099 C6.95827277,3.68401038 6.7793976,4.11595839 6.93526632,4.49269067 C7.09142261,4.86971054 7.52336876,5.04858648 7.90009941,4.89242951 C8.27683007,4.73656012 8.45570524,4.30461211 8.29983652,3.92787983 C8.14368023,3.55085996 7.71173409,3.37198402 7.33500343,3.52814099" id="Fill-20" fill="#FFFFFF"></path>
                <g id="Group-24" transform="translate(0, 9.2472)">
                    <mask id="mask-7" fill="white">
                        <use xlink:href="#path-6"></use>
                    </mask>
                    <g id="Clip-23"></g>
                    <path d="M0.73839209,0 C0.330602721,0 -0.000115032262,0.330719182 -0.000115032262,0.738510312 C-0.000115032262,1.14630144 0.330602721,1.47673304 0.73839209,1.47673304 C1.14618146,1.47673304 1.47689921,1.14630144 1.47689921,0.738510312 C1.47689921,0.330719182 1.14618146,0 0.73839209,0" id="Fill-22" fill="#FFFFFF" mask="url(#mask-7)"></path>
                </g>
                <path d="M3.96898689,3.96891776 C4.25743029,3.6807607 4.25743029,3.21315254 3.96898689,2.9247079 C3.6805435,2.63626325 3.21322493,2.63626325 2.92478154,2.9247079 C2.63633814,3.21315254 2.63633814,3.6807607 2.92478154,3.96891776 C3.21322493,4.25736241 3.6805435,4.25736241 3.96898689,3.96891776" id="Fill-25" fill="#FFFFFF"></path>
                <path d="M2.3464856,4.72255488 C1.99333655,4.51865932 1.54154734,4.63944372 1.33765266,4.99288187 C1.13375797,5.34603244 1.25482943,5.79753602 1.60797847,6.00143158 C1.96112752,6.20532715 2.41291673,6.08425517 2.61681141,5.7311046 C2.8207061,5.37795403 2.69963464,4.92645045 2.3464856,4.72255488" id="Fill-27" fill="#FFFFFF"></path>
                <path d="M5.73125239,2.61665017 C6.08440143,2.4127546 6.20547289,1.96125102 6.0015782,1.60810045 C5.79768352,1.25494988 5.34589431,1.1338779 4.99274527,1.33777347 C4.63959622,1.54166904 4.51852477,1.9934602 4.72241945,2.34661077 C4.92631414,2.69976134 5.37810334,2.82054573 5.73125239,2.61665017" id="Fill-29" fill="#FFFFFF"></path>
                <path d="M1.24462032,6.87898774 C0.850634819,6.77344519 0.445721257,7.00724927 0.340179157,7.40123647 C0.234637056,7.79522367 0.468440129,8.1998514 0.862425626,8.30539395 C1.25641112,8.41122409 1.66103711,8.17742001 1.76657921,7.78343281 C1.87240889,7.38944561 1.63860581,6.9845303 1.24462032,6.87898774" id="Fill-31" fill="#FFFFFF"></path>
                <path d="M7.78342794,1.76670187 C8.17741344,1.66115931 8.41121651,1.256244 8.30538683,0.862256803 C8.19984473,0.468269603 7.79521875,0.234465521 7.40123325,0.340295659 C7.00724776,0.445838215 6.77344468,0.850465945 6.87898678,1.24474073 C6.98452888,1.63844034 7.38944245,1.87224443 7.78342794,1.76670187" id="Fill-33" fill="#FFFFFF"></path>
                <path d="M9.98569184,12.3311091 C9.57790247,12.3311091 9.24718472,12.6615407 9.24718472,13.0693319 C9.24718472,13.477123 9.57790247,13.8078422 9.98569184,13.8078422 C10.3934812,13.8078422 10.724199,13.477123 10.724199,13.0693319 C10.724199,12.6615407 10.3934812,12.3311091 9.98569184,12.3311091" id="Fill-35" fill="#DDADB7"></path>
                <path d="M12.7454596,12.6647617 C13.033903,12.376317 13.033903,11.9089964 12.7454596,11.6205518 C12.4570162,11.3321071 11.9896976,11.3321071 11.7012542,11.6205518 C11.4128108,11.9089964 11.4128108,12.376317 11.7012542,12.6647617 C11.9896976,12.9532063 12.4570162,12.9532063 12.7454596,12.6647617" id="Fill-37" fill="#E7C1C8"></path>
                <path d="M9.98569184,15.3772629 C9.57790247,15.3772629 9.24718472,15.7079821 9.24718472,16.1157732 C9.24718472,16.5235643 9.57790247,16.8539959 9.98569184,16.8539959 C10.3934812,16.8539959 10.724199,16.5235643 10.724199,16.1157732 C10.724199,15.7079821 10.3934812,15.3772629 9.98569184,15.3772629" id="Fill-39" fill="#DDADB7"></path>
                <path d="M14.8835642,14.825422 C15.1720076,14.5369773 15.1720076,14.0696567 14.8835642,13.7812121 C14.5951209,13.4927675 14.1275147,13.4927675 13.8393589,13.7812121 C13.5509155,14.0696567 13.5509155,14.5369773 13.8393589,14.825422 C14.1275147,15.113579 14.5951209,15.113579 14.8835642,14.825422" id="Fill-41" fill="#E7C1C8"></path>
                <path d="M16.3849941,12.578257 C16.5411504,12.2012372 16.3622752,11.7692891 15.9855446,11.6134198 C15.6085263,11.4575504 15.1765802,11.6364263 15.0207115,12.0131586 C14.8645552,12.3898909 15.0434303,12.8218389 15.420161,12.9777083 C15.7968917,13.1338652 16.2291254,12.9549893 16.3849941,12.578257" id="Fill-43" fill="#E7C1C8"></path>
                <path d="M12.6363515,16.3269158 C13.0130822,16.1707588 13.1919573,15.7388108 13.0360886,15.3620785 C12.8799323,14.9853463 12.4479862,14.8064703 12.0712555,14.9623397 C11.6945249,15.1184967 11.5156497,15.5504447 11.6715184,15.927177 C11.8276747,16.3039093 12.2596208,16.4827852 12.6363515,16.3269158" id="Fill-45" fill="#DDADB7"></path>
                <path d="M9.98569184,18.4945931 C9.57790247,18.4945931 9.24718472,18.8250247 9.24718472,19.2328159 C9.24718472,19.6408946 9.57790247,19.9713262 9.98569184,19.9713262 C10.3934812,19.9713262 10.724199,19.6408946 10.724199,19.2328159 C10.724199,18.8250247 10.3934812,18.4945931 9.98569184,18.4945931" id="Fill-47" fill="#DDADB7"></path>
                <path d="M16.002368,16.0024084 C15.7139246,16.2905655 15.7139246,16.7581736 16.002368,17.0466183 C16.2908114,17.3350629 16.75813,17.3350629 17.0465734,17.0466183 C17.3350168,16.7581736 17.3350168,16.2905655 17.0465734,16.0024084 C16.75813,15.7139638 16.2908114,15.7139638 16.002368,16.0024084" id="Fill-49" fill="#E7C1C8"></path>
                <path d="M18.3632327,13.9698371 C18.0100836,13.7659415 17.558582,13.8870135 17.3546873,14.2401641 C17.150505,14.5933146 17.2715765,15.0448182 17.6247255,15.2487138 C17.9778746,15.4526093 18.4296638,15.3318249 18.6335585,14.9783868 C18.8374532,14.6252362 18.7163817,14.1737326 18.3632327,13.9698371" id="Fill-51" fill="#E7C1C8"></path>
                <path d="M14.2400738,17.354676 C13.8869247,17.5585716 13.7658533,18.0100751 13.969748,18.3632257 C14.1736426,18.7163763 14.6254319,18.8374483 14.9785809,18.6335527 C15.3317299,18.4296571 15.4528014,17.977866 15.2489067,17.6247154 C15.045012,17.2715648 14.5932228,17.1507804 14.2400738,17.354676" id="Fill-53" fill="#DDADB7"></path>
                <path d="M19.1090156,11.6657884 C18.7150301,11.5602459 18.3101165,11.7940499 18.2045744,12.1877496 C18.0990323,12.5820243 18.3328354,12.9866521 18.7268209,13.0921946 C19.1208064,13.1977372 19.5254324,12.9642207 19.6309745,12.5702335 C19.7368041,12.1762463 19.5030011,11.771331 19.1090156,11.6657884" id="Fill-55" fill="#E7C1C8"></path>
                <path d="M12.187927,18.2046243 C11.7939415,18.3101669 11.5601384,18.7150822 11.6659681,19.1090694 C11.7715102,19.5030566 12.1761362,19.7365731 12.5701217,19.6310305 C12.9641072,19.5254879 13.1979102,19.1208602 13.0923681,18.7265854 C12.986826,18.3328858 12.5819125,18.0990817 12.187927,18.2046243" id="Fill-57" fill="#DAA3AE"></path>
                <path d="M13.1502294,9.1665867 C12.74244,9.1665867 12.4117222,9.4970183 12.4117222,9.90480943 C12.4117222,10.3128881 12.74244,10.6433197 13.1502294,10.6433197 C13.5580187,10.6433197 13.8887365,10.3128881 13.8887365,9.90480943 C13.8887365,9.4970183 13.5580187,9.1665867 13.1502294,9.1665867" id="Fill-59" fill="#F5E1E5"></path>
                <path d="M12.7454596,7.14523106 C12.4570162,6.85678642 11.9896976,6.85678642 11.7012542,7.14523106 C11.4128108,7.43338812 11.4128108,7.90099629 11.7012542,8.18944093 C11.9896976,8.47788557 12.4570162,8.47788557 12.7454596,8.18944093 C13.033903,7.90099629 13.033903,7.43338812 12.7454596,7.14523106" id="Fill-61" fill="#F5E1E5"></path>
                <path d="M16.1738811,9.18904685 C15.7660918,9.18904685 15.435374,9.51947845 15.435374,9.92755716 C15.435374,10.3353483 15.7660918,10.6657799 16.1738811,10.6657799 C16.5816705,10.6657799 16.9123883,10.3353483 16.9123883,9.92755716 C16.9123883,9.51947845 16.5816705,9.18904685 16.1738811,9.18904685" id="Fill-63" fill="#F6E5E8"></path>
                <path d="M14.8835642,5.02966359 C14.5951209,4.74121895 14.1275147,4.74121895 13.8393589,5.02966359 C13.5509155,5.31782065 13.5509155,5.78542882 13.8393589,6.07387346 C14.1275147,6.3623181 14.5951209,6.3623181 14.8835642,6.07387346 C15.1720076,5.78542882 15.1720076,5.31782065 14.8835642,5.02966359" id="Fill-65" fill="#F6E5E8"></path>
                <path d="M12.0712268,4.89245827 C12.4479574,5.04861524 12.8799036,4.86945172 13.0360598,4.49271943 C13.1919286,4.11598715 13.0130534,3.68403914 12.6363227,3.52816975 C12.2595921,3.37201278 11.8276459,3.55088872 11.6714896,3.92790859 C11.5156209,4.30464087 11.6944961,4.73658888 12.0712268,4.89245827" id="Fill-67" fill="#F6E5E8"></path>
                <path d="M15.9854295,8.24149325 C16.3621602,8.08562387 16.5410354,7.65367586 16.3848791,7.27694357 C16.2290103,6.8999237 15.7970642,6.72104776 15.4203335,6.87720473 C15.0436029,7.03307412 14.8647277,7.46502213 15.0205964,7.84175442 C15.1767527,8.2184867 15.6086989,8.39765022 15.9854295,8.24149325" id="Fill-69" fill="#F6E5E8"></path>
                <g id="Group-73" transform="translate(18.4944, 9.2473)">
                    <mask id="mask-9" fill="white">
                        <use xlink:href="#path-8"></use>
                    </mask>
                    <g id="Clip-72"></g>
                    <path d="M0.738507122,0 C0.330717753,0 0,0.3304316 0,0.73822273 C0,1.14601386 0.330717753,1.47673304 0.738507122,1.47673304 C1.14629649,1.47673304 1.47701424,1.14601386 1.47701424,0.73822273 C1.47701424,0.3304316 1.14629649,0 0.738507122,0" id="Fill-71" fill="#F6E5E8" mask="url(#mask-9)"></path>
                </g>
                <path d="M17.0466597,2.92473665 C16.7582163,2.63629201 16.2906101,2.63629201 16.0024543,2.92473665 C15.7140109,3.21289371 15.7140109,3.68050188 16.0024543,3.96894652 C16.2906101,4.25739117 16.7582163,4.25739117 17.0466597,3.96894652 C17.3351031,3.68050188 17.3351031,3.21289371 17.0466597,2.92473665" id="Fill-74" fill="#F6E5E8"></path>
                <path d="M14.2401601,2.61665017 C14.5933091,2.82054573 15.0448107,2.69976134 15.2487054,2.34661077 C15.4526001,1.9934602 15.3318162,1.54166904 14.9786672,1.33777347 C14.6252305,1.1338779 14.1737289,1.25494988 13.9698342,1.60810045 C13.7659396,1.96125102 13.887011,2.4127546 14.2401601,2.61665017" id="Fill-76" fill="#F6E5E8"></path>
                <path d="M18.6335585,4.99285311 C18.4296638,4.63941496 17.9781622,4.51863056 17.6247255,4.72252613 C17.2715765,4.92642169 17.1507926,5.37792527 17.3546873,5.73107584 C17.558582,6.08422641 18.0100836,6.20529839 18.3632327,6.00140282 C18.7163817,5.79750726 18.8374532,5.34600368 18.6335585,4.99285311" id="Fill-78" fill="#F6E5E8"></path>
                <path d="M12.187927,1.76670187 C12.5819125,1.87224443 12.986826,1.63844034 13.0923681,1.24474073 C13.1979102,0.850465945 12.9641072,0.445838215 12.5701217,0.340295659 C12.1761362,0.234753103 11.7715102,0.468269603 11.6659681,0.862256803 C11.5601384,1.256244 11.7939415,1.66115931 12.187927,1.76670187" id="Fill-80" fill="#F6E5E8"></path>
                <path d="M19.1090156,8.30553774 C19.5030011,8.19999519 19.7368041,7.79507988 19.6309745,7.40109268 C19.5254324,7.00710548 19.1208064,6.77358898 18.7268209,6.87913153 C18.3328354,6.98467409 18.0990323,7.38930182 18.2045744,7.7835766 C18.3101165,8.17727622 18.7150301,8.4110803 19.1090156,8.30553774" id="Fill-82" fill="#F6E5E8"></path>
                <path d="M8.27012944,12.6647617 C8.55857284,12.376317 8.55857284,11.9089964 8.27012944,11.6205518 C7.98168605,11.3321071 7.51436748,11.3321071 7.22592409,11.6205518 C6.93748069,11.9089964 6.93748069,12.376317 7.22592409,12.6647617 C7.51436748,12.9532063 7.98168605,12.9532063 8.27012944,12.6647617" id="Fill-84" fill="#D06D7E"></path>
                <path d="M5.08779067,13.7810971 C4.79934728,14.0695417 4.79934728,14.5368623 5.08779067,14.8253069 C5.37623407,15.1137516 5.84384022,15.1137516 6.13199603,14.8253069 C6.42043943,14.5368623 6.42043943,14.0695417 6.13199603,13.7810971 C5.84384022,13.4926524 5.37623407,13.4926524 5.08779067,13.7810971" id="Fill-86" fill="#D06D7E"></path>
                <path d="M7.90009941,14.9624547 C7.52336876,14.8065854 7.09142261,14.9854613 6.93526632,15.3621936 C6.7793976,15.7389259 6.95827277,16.1708739 7.33500343,16.3267433 C7.71173409,16.4829002 8.14368023,16.3040243 8.29983652,15.927292 C8.45570524,15.5505597 8.27683007,15.1186117 7.90009941,14.9624547" id="Fill-88" fill="#CF7888"></path>
                <path d="M4.95064346,12.0130723 C4.79448716,11.63634 4.36254102,11.4574641 3.98581036,11.6133335 C3.6090797,11.7694905 3.43020454,12.2014385 3.58636083,12.5781707 C3.74222955,12.954903 4.17417569,13.133779 4.55090635,12.9779096 C4.92792459,12.8217526 5.10679975,12.3898046 4.95064346,12.0130723" id="Fill-90" fill="#CA566A"></path>
                <path d="M2.9246665,16.0024084 C2.63622311,16.290853 2.63622311,16.7581736 2.9246665,17.0466183 C3.2131099,17.3350629 3.68071604,17.3350629 3.96887186,17.0466183 C4.25731526,16.7581736 4.25731526,16.290853 3.96887186,16.0024084 C3.68071604,15.7139638 3.2131099,15.7139638 2.9246665,16.0024084" id="Fill-92" fill="#D06D7E"></path>
                <path d="M5.73119487,17.3545897 C5.37804583,17.1506942 4.9265442,17.2717661 4.72264952,17.6249167 C4.51875483,17.9780673 4.63953871,18.4295709 4.99268775,18.6334664 C5.34612438,18.837362 5.797626,18.7165776 6.00152069,18.363427 C6.20541537,18.0102764 6.08434392,17.5584853 5.73119487,17.3545897" id="Fill-94" fill="#CF7888"></path>
                <path d="M2.61672514,14.2401353 C2.41283045,13.8869847 1.96132882,13.7659127 1.60817978,13.9698083 C1.25474316,14.1737039 1.13395928,14.625495 1.33785396,14.9786456 C1.54174865,15.3317962 1.99325028,15.4528682 2.34639932,15.248685 C2.69954837,15.0447894 2.82061982,14.5932859 2.61672514,14.2401353" id="Fill-96" fill="#CA566A"></path>
                <path d="M7.78339918,18.2046243 C7.38941369,18.0990817 6.98450013,18.3328858 6.87895802,18.726873 C6.77341592,19.1208602 7.007219,19.5254879 7.40120449,19.6310305 C7.79518999,19.7365731 8.20010355,19.5030566 8.30564565,19.1090694 C8.41118775,18.7150822 8.17738468,18.3101669 7.78339918,18.2046243" id="Fill-98" fill="#DDADB7"></path>
                <path d="M1.76669424,12.1879509 C1.66115214,11.7939637 1.25623858,11.5601596 0.862253078,11.6657021 C0.468555161,11.7712447 0.234752089,12.17616 0.340294189,12.5701472 C0.445836289,12.9641344 0.850749852,13.1979385 1.24444777,13.0923959 C1.63843327,12.9868534 1.87223634,12.5819381 1.76669424,12.1879509" id="Fill-100" fill="#CA566A"></path>
            </g>
        </g>
    </g>
</svg>
