<?xml version="1.0" encoding="UTF-8"?>
<svg viewBox="0 0 30 30" version="1.1" xmlns="http://www.w3.org/2000/svg" xmlns:xlink="http://www.w3.org/1999/xlink">
    <title>leftmenu/sports/color/icon-sbov2</title>
    <g id="leftmenu/sports/color/icon-sbov2" stroke="none" stroke-width="1" fill="none" fill-rule="evenodd">
        <path d="M16.7866807,11.130509 L15.4266625,12.7890199 L18.2668733,15.2279682 C18.7429669,15.6365444 18.8050385,16.3627217 18.4056215,16.8497641 L11.2192898,25.6139274 C11.0056113,25.8746689 10.6900146,26.0252654 10.3575904,26.0252654 L8.14730293,26.0252654 C7.66946299,26.0252654 7.40927041,25.454071 7.71629448,25.0796105 L9.29745254,23.1512606 L9.29745254,23.1512606 L14.875321,16.3487505 L11.1734109,13.1698162 L14.3255669,9.32546304 L14.4738402,9.14448732 L16.4144101,6.77783179 L18.1762266,4.62935435 C18.3899051,4.36861286 18.7055018,4.21801637 19.037926,4.21801637 L21.2482135,4.21801637 C21.7260534,4.21801637 21.986246,4.78921082 21.6790632,5.16367135 L18.7272506,8.76385347 L16.7866807,11.130509 Z M23.1476669,9.30629326 C22.6841145,9.59124066 22.1602369,9.76734271 21.6057203,9.81689171 C20.8602265,9.88431085 20.131084,9.71584423 19.4956045,9.34317071 L22.4086819,5.79026322 C22.7914301,5.32352782 22.8728693,4.69060018 22.6212492,4.13841305 C22.3696292,3.58638837 21.843529,3.2432818 21.2482135,3.2432818 L21.2482135,3.2432818 L19.037926,3.2432818 C18.4222903,3.24344426 17.8422149,3.52010642 17.4466078,4.00276248 L15.6847914,6.15140238 L13.8682058,4.59133971 C12.5086639,3.42377015 10.7860589,2.86833391 9.01820987,3.02640336 C8.56053128,3.06734221 8.11539401,3.15750516 7.68613183,3.29088134 C7.21146691,3.43839117 6.887139,3.88741889 6.887139,4.39509315 L6.887139,6.12102315 C6.887139,6.56891368 7.36418518,6.84525093 7.7394721,6.61456375 C8.20286571,6.3297788 8.72674338,6.15383922 9.28125996,6.10429021 C10.2466236,6.01786374 11.1856347,6.32116865 11.9274772,6.95799523 L12.1611584,7.1586281 L7.64406286,12.6675029 C7.24416957,13.1551951 7.30624114,13.8825096 7.78296982,14.2917356 L10.6219105,16.7295468 L6.13291391,22.2043059 C5.82525484,22.5794163 6.08592367,23.151423 6.56439861,23.1512606 L8.0541162,23.1512606 L6.98667576,24.4530186 C6.60408631,24.919754 6.52264714,25.5526816 6.77426718,26.1047063 C7.02572846,26.6568934 7.55198739,27 8.14730293,27 L10.3575904,27 C10.9732261,27 11.5533015,26.7231754 11.9490673,26.2405193 L19.1352402,17.4763559 C19.8715265,16.5783005 19.7567496,15.2347913 18.8791751,14.4811591 L16.7685831,12.6689651 L17.5370958,11.7317578 C18.6420014,12.5087837 19.9359793,12.9212588 21.2782174,12.9212588 C21.4741159,12.9210964 21.6712844,12.9124862 21.8687704,12.8946161 C22.326449,12.8536773 22.771745,12.7635143 23.2011659,12.6301381 C23.6758308,12.4826283 24,12.0336006 24,11.5259263 L24,9.79983386 C24,9.35194332 23.5229538,9.07560608 23.1476669,9.30629326 L23.1476669,9.30629326 Z" id="sbo" fill="#FFFFFF"></path>
    </g>
</svg>
