<?xml version="1.0" encoding="UTF-8"?>
<svg viewBox="0 0 30 30" version="1.1" xmlns="http://www.w3.org/2000/svg" xmlns:xlink="http://www.w3.org/1999/xlink">
    <title>regulations</title>
    <g id="regulations" stroke="none" stroke-width="1" fill="none" fill-rule="evenodd">
        <path d="M8.89201322,2.0000703 C12.9766569,2.02411508 17.0615933,2.02145143 21.1463102,2.00169603 C22.1644349,1.99681267 22.8624751,2.38289389 23.3742445,3.29482393 C25.4198586,6.93995445 27.5060778,10.561852 29.5742991,14.1940342 C29.7016012,14.4176328 29.8337321,14.6461888 29.9106255,14.8895428 C30.0388788,15.2951574 30.0462682,15.6942609 29.8186607,16.0945482 C27.6676199,19.8777446 25.5114577,23.6581293 23.3935593,27.4601932 C22.8704498,28.3992777 22.1588014,28.8020067 21.109656,28.7852109 C19.0738455,28.7527292 17.0371572,28.7757401 15.0008346,28.7757401 C12.940149,28.7757401 10.8793171,28.7596843 8.81885106,28.7826212 C7.82918644,28.7936458 7.14629078,28.404383 6.64864173,27.5201993 C4.59256538,23.8669299 2.49771308,20.2360055 0.42934549,16.5896911 C0.246220589,16.2668716 0.115918771,15.9016556 0.0261487938,15.5396212 C-0.0590851296,15.1962324 0.0763380396,14.8777043 0.254926887,14.5639856 C2.38365327,10.8248134 4.51611092,7.08763902 6.61001211,3.3284895 C7.13268262,2.39007094 7.8422093,1.99392705 8.89201322,2.0000703 Z M20.9140935,3.61915177 C18.9510063,3.63887868 16.9876264,3.62696624 15.0243928,3.62704023 C13.0123601,3.62704023 11.0003274,3.63207157 8.9883678,3.62319274 C8.52964102,3.621195 8.2063374,3.78256777 7.97082839,4.19706125 C5.94226102,7.76760958 3.90527999,11.3332006 1.86390924,14.8962759 C1.66395704,15.245214 1.6700295,15.5515337 1.8693964,15.8993619 C3.89298875,19.4301035 5.91467888,22.9619549 7.91793215,26.5044609 C8.19002224,26.9855456 8.53754253,27.1667478 9.0701631,27.1651312 C13.0088483,27.1531336 16.9475335,27.1527636 20.8862187,27.1651312 C21.4612002,27.1668958 21.8335224,26.9578733 22.1242689,26.443345 C24.1082073,22.9322848 26.1113874,19.4322492 28.1174209,15.9339894 C28.3303959,15.5625582 28.3404191,15.2415145 28.1243713,14.865052 C26.1047297,11.3461489 24.0883804,7.82517401 22.0930286,4.29213874 C21.8128175,3.79588602 21.4609807,3.61379597 20.9140935,3.61915177 Z M20.6181672,4.65878272 C20.997952,4.65745089 21.2153899,4.78242045 21.4030509,5.11330493 C23.2825138,8.42873481 25.1738289,11.7373576 27.0692411,15.0434647 C27.2083224,15.2861528 27.2159313,15.4836328 27.076411,15.7274307 C25.1649031,19.0667595 23.2583702,22.4090478 21.357105,25.7542958 C21.2051472,26.0215486 21.0143403,26.1258009 20.7083761,26.1240991 C18.7940149,26.1130746 16.8795805,26.1184759 14.9651461,26.1185499 C13.0873659,26.1185499 11.2095126,26.1113728 9.33180564,26.1252473 C8.9963571,26.1276507 8.79391739,26.0137057 8.62791244,25.7212961 C6.74018223,22.3965435 4.84564794,19.0757863 2.94438274,15.7589506 C2.78949843,15.4888861 2.8003996,15.2764601 2.95345485,15.0095772 C4.83803908,11.7255931 6.71772145,8.4387235 8.58277138,5.14341897 C8.78535742,4.78545405 9.01845208,4.656637 9.42442894,4.65824957 C13.1556262,4.67313683 16.8869699,4.67239693 20.6181672,4.65878272 Z M15.5523456,6.80442648 C15.1370772,6.78111954 14.7902885,7.04689258 14.6855203,7.4975673 C14.6414767,7.68698238 14.6318924,7.88801394 14.6315266,8.08379219 C14.6278685,10.1191165 14.6293317,12.1544407 14.6291854,14.189765 C14.6291854,14.288468 14.6236983,14.387393 14.6288928,14.4858001 C14.6404524,14.7062911 14.5389033,14.7886422 14.3232944,14.7959673 C13.8969785,14.8104694 13.8468624,14.7720684 13.8465697,14.3219856 C13.8455455,12.6813994 13.8512521,11.0407392 13.8407899,9.40022702 C13.8391072,9.1335661 13.8008434,8.85699048 13.7213893,8.60357381 C13.6148652,8.26403248 13.3454821,8.09326294 12.9905724,8.09947812 C12.6392477,8.10561932 12.3760102,8.27165348 12.2691203,8.61792793 C12.2045912,8.82680245 12.1582064,9.05099296 12.1565969,9.26859834 C12.1442325,10.9708184 12.140428,12.6730385 12.1451836,14.3752586 C12.1459883,14.6587893 12.0876049,14.8034403 11.7634965,14.8022564 C11.4464849,14.8011466 11.4079284,14.6467289 11.4102696,14.3881329 C11.4183174,13.4876714 11.4223414,12.5870618 11.4084406,11.6867483 C11.4030997,11.3438034 11.3698841,10.996715 11.3046234,10.6603553 C11.2321197,10.2867784 10.9549814,10.1106816 10.5937067,10.0750922 C10.238358,10.0400209 9.9029095,10.2330615 9.78189928,10.5798539 C9.70668857,10.7954615 9.67061963,11.0355599 9.66879057,11.2650777 C9.65854787,12.5848421 9.66381554,13.9047545 9.66381554,15.2246669 C9.66381554,16.5322229 9.65452395,17.8398529 9.66696152,19.1472609 C9.6758873,20.0937444 9.85447615,21.0112237 10.2395286,21.8780197 C10.8423849,23.2350012 11.9502796,23.8714655 13.349506,24.0972098 C15.9521037,24.5171045 18.1237031,23.7333996 19.5499264,21.3806571 C20.7395432,19.4180653 22.0900436,17.5556562 23.347116,15.633981 C23.4877336,15.4190393 23.5712848,15.0931122 23.5312651,14.8431731 C23.3978905,14.0101906 22.4791932,13.7047588 21.8458283,14.280995 C21.1393013,14.9238964 20.475062,15.6140776 19.7787045,16.2688175 C19.6612792,16.379285 19.4746425,16.4145044 19.3199777,16.4844252 C19.2760072,16.3283797 19.1944314,16.1724822 19.193773,16.0162147 L19.1877645,12.8892658 L19.1876273,9.7622614 C19.1875542,9.60192449 19.1909928,9.4406997 19.1758482,9.28154663 C19.1316583,8.81977338 18.7874303,8.45248569 18.3404826,8.37834744 C17.9298234,8.3102024 17.4708039,8.55666398 17.3088229,8.97729865 C17.2271739,9.18928077 17.1897149,9.43130293 17.1882517,9.66008084 C17.1781553,11.2389592 17.1787406,12.8179115 17.1865689,14.3968638 C17.187959,14.6729954 17.1106998,14.7953753 16.8144662,14.8012946 C16.4923331,14.8077317 16.3928326,14.6919369 16.3944422,14.3710412 C16.4050507,12.2494442 16.4000025,10.1276993 16.399344,8.00602842 C16.3992709,7.87047825 16.4055628,7.73315231 16.3871259,7.59974786 C16.3255966,7.15462241 15.9776373,6.82832533 15.5523456,6.80442648 Z" id="Combined-Shape" fill="#747687" fill-rule="nonzero"></path>
    </g>
</svg>
