<?xml version="1.0" encoding="UTF-8"?>
<svg viewBox="0 0 30 30" version="1.1" xmlns="http://www.w3.org/2000/svg" xmlns:xlink="http://www.w3.org/1999/xlink">
    <title>youtube</title>
    <g id="Symbols" stroke="none" stroke-width="1" fill="none" fill-rule="evenodd">
        <g id="global/footer" transform="translate(-223.000000, -100.000000)">
            <g id="Follow-Us" transform="translate(10.000000, 69.000000)">
                <g id="icon" transform="translate(13.000000, 31.000000)">
                    <g id="youtube" transform="translate(200.000000, 0.000000)">
                        <path d="M15.0002748,30 C6.72877164,30 0,23.2712284 0,14.9997252 C0,6.72932124 6.72877164,0 15.0002748,0 C23.2712284,0 30,6.72932124 30,14.9997252 C30,23.2712284 23.2712284,30 15.0002748,30" id="Fill-103" fill="#EF2035"></path>
                        <path d="M17.6779335,15.3025556 L13.6933223,17.488321 C13.5196483,17.5817532 13.364111,17.4564441 13.364111,17.2596867 L13.364111,12.773839 C13.364111,12.573784 13.5245947,12.4490245 13.6982688,12.5474031 L17.7098104,14.8480352 C17.8878813,14.9491619 17.8571036,15.2052762 17.6779335,15.3025556 Z M23.9818631,12.725474 C23.9818631,10.5979665 22.2566639,8.87331685 20.129706,8.87331685 L10.1384996,8.87331685 C8.01099203,8.87331685 6.2857928,10.5979665 6.2857928,12.725474 L6.2857928,17.4080791 C6.2857928,19.5350371 8.01099203,21.2602363 10.1384996,21.2602363 L20.129706,21.2602363 C22.2566639,21.2602363 23.9818631,19.5350371 23.9818631,17.4080791 L23.9818631,12.725474 L23.9818631,12.725474 Z" id="Fill-104" fill="#FFFFFE"></path>
                    </g>
                </g>
            </g>
        </g>
    </g>
</svg>